<?xml version="1.0" encoding="utf-8"?>
<!-- Svg Vector Icons : http://www.onlinewebfonts.com/icon -->
<!DOCTYPE svg PUBLIC "-//W3C//DTD SVG 1.1//EN" "http://www.w3.org/Graphics/SVG/1.1/DTD/svg11.dtd">
<svg version="1.1" xmlns="http://www.w3.org/2000/svg" xmlns:xlink="http://www.w3.org/1999/xlink" x="0px" y="0px" viewBox="0 0 1000 1000" enable-background="new 0 0 1000 1000" xml:space="preserve">
<metadata> Svg Vector Icons : http://www.onlinewebfonts.com/icon </metadata>
<g><path d="M663.3,336.7V119.8H119.8v216.9H663.3z M500,880.3c44.2,0,82.5-16.2,114.8-48.5c32.3-32.3,48.5-70.6,48.5-114.8c0-44.2-16.1-82.5-48.5-114.8c-32.4-32.3-70.7-48.5-114.8-48.5s-82.4,16.2-114.8,48.5c-32.4,32.3-48.5,70.6-48.5,114.8c0,44.2,16.2,82.5,48.5,114.8C417.5,864.1,455.8,880.3,500,880.3z M773.1,10L990,226.9v653.3c0,28.9-11.1,54.4-33.2,76.5c-22.1,22.1-47.6,33.2-76.5,33.2H119.8c-30.6,0-56.6-11.1-77.9-33.2C20.6,934.7,10,909.2,10,880.3V119.7c0-28.9,10.6-54.4,31.9-76.5C63.2,21.1,89.1,10,119.8,10H773.1z"/></g>
</svg>